# xmcd
#
# Track frame offsets: 
#        150
#        28542
#        46297
#        61482
#        72030
#        99482
#        114192
#        127102
#        147945
#        157655
#
# Disc length: 2389 seconds
#
# Revision: 5
# Processed by: cddbd v1.5.2PL0 Copyright (c) Steve Scherf et al.
# Submitted via: ExactAudioCopy v1.1
#
DISCID=7e09530a
DTITLE=The Rolling Stones - Beggars Banquet
DYEAR=1968
DGENRE=Rock
TTITLE0=Sympathy For The Devil
TTITLE1=No Expectations
TTITLE2=Dear Doctor
TTITLE3=Parachute Woman
TTITLE4=Jig-Saw Puzzle
TTITLE5=Street Fighting Man
TTITLE6=Prodigal Son
TTITLE7=Stray Cat Blues
TTITLE8=Factory Girl
TTITLE9=Salt Of The Earth
EXTD=
EXTT0=
EXTT1=
EXTT2=
EXTT3=
EXTT4=
EXTT5=
EXTT6=
EXTT7=
EXTT8=
EXTT9=
PLAYORDER=
